<svg width="178" height="100" viewBox="0 0 178 100" fill="none" xmlns="http://www.w3.org/2000/svg">
<g filter="url(#filter0_d)">
<rect x="4.5" y="0.5" width="169" height="91" rx="3.5" stroke="#AFB1B8"/>
<path d="M89.425 43.4082C88.9819 42.8184 88.7699 42.1213 88.8203 41.4196V38.5364C88.8203 37.6526 89.0207 36.9809 89.4216 36.5214C89.8224 36.0619 90.511 35.8331 91.4871 35.8351C92.4044 35.8351 93.0555 36.0306 93.4405 36.4217C93.8605 36.9207 94.0648 37.5309 94.018 38.1463V38.8239H92.3772V38.1375C92.383 37.9129 92.3671 37.6882 92.3296 37.4659C92.306 37.3138 92.2234 37.1732 92.0952 37.067C91.9267 36.9525 91.7145 36.897 91.5007 36.9115C91.2759 36.897 91.0529 36.9556 90.8756 37.0758C90.7327 37.1935 90.6374 37.3477 90.6038 37.5157C90.5567 37.7511 90.5351 37.9897 90.5393 38.2285V41.7276C90.5134 42.0652 90.5858 42.403 90.7499 42.7102C90.8315 42.8141 90.9448 42.8965 91.0774 42.9483C91.2099 43.0001 91.3564 43.0192 91.5007 43.0035C91.7109 43.0184 91.9195 42.9615 92.0816 42.8451C92.2153 42.7305 92.3013 42.581 92.3262 42.4198C92.3645 42.1877 92.3816 41.9533 92.3772 41.7188V41.009H94.018V41.6572C94.0641 42.2988 93.8648 42.9356 93.4507 43.4698C93.0736 43.8981 92.4315 44.1122 91.4871 44.1122C90.5427 44.1122 89.8292 43.8834 89.425 43.4082Z" fill="#AFB1B8"/>
<path d="M96.2569 43.4376C95.8424 42.9888 95.6352 42.3347 95.6352 41.4695V38.4367C95.6352 37.5803 95.8424 36.9321 96.2569 36.4921C96.6713 36.0521 97.3644 35.8331 98.3359 35.8351C99.3007 35.8351 99.9904 36.0541 100.405 36.4921C100.819 36.9321 101.03 37.5803 101.03 38.4367V41.4695C101.03 42.3259 100.819 42.9829 100.398 43.4346C99.9768 43.8863 99.2906 44.1122 98.3359 44.1122C97.3813 44.1122 96.6747 43.8834 96.2569 43.4376ZM99.1003 42.7102C99.2487 42.4291 99.3163 42.1212 99.2974 41.8127V38.0994C99.3164 37.7969 99.2499 37.4949 99.1037 37.2195C99.0205 37.1134 98.9043 37.0296 98.7686 36.9777C98.6328 36.9259 98.4829 36.908 98.3359 36.9262C98.1885 36.9085 98.0383 36.9265 97.9021 36.9783C97.7659 37.0301 97.6491 37.1136 97.5648 37.2195C97.4154 37.4941 97.3477 37.7965 97.3678 38.0994V41.8303C97.3471 42.1389 97.4148 42.4471 97.5648 42.7278C97.6604 42.8224 97.7785 42.8982 97.9109 42.9502C98.0433 43.0021 98.1871 43.029 98.3326 43.029C98.478 43.029 98.6218 43.0021 98.7542 42.9502C98.8866 42.8982 99.0047 42.8224 99.1003 42.7278V42.7102Z" fill="#AFB1B8"/>
<path d="M103.004 35.9236H104.77L106.098 41.5192L107.457 35.9236H109.176L109.35 44.0003H108.079L107.943 38.3871L106.632 44.0003H105.613L104.254 38.3665L104.128 44.0003H102.844L103.004 35.9236Z" fill="#AFB1B8"/>
<path d="M111.33 35.9236H114.082C115.667 35.9236 116.46 36.688 116.46 38.217C116.46 39.6814 115.625 40.4126 113.956 40.4106H113.019V44.0003H111.32L111.33 35.9236ZM113.681 39.3754C113.849 39.3938 114.019 39.3805 114.181 39.3364C114.342 39.2924 114.49 39.2186 114.615 39.1203C114.81 38.8475 114.896 38.5271 114.86 38.2082C114.869 37.9618 114.841 37.7154 114.778 37.475C114.754 37.3947 114.712 37.3194 114.653 37.2534C114.595 37.1874 114.522 37.1322 114.439 37.0908C114.203 36.9932 113.942 36.9488 113.681 36.9618H113.022V39.3754H113.681Z" fill="#AFB1B8"/>
<path d="M118.909 35.9236H120.734L122.606 44.0003H121.022L120.652 42.138H119.025L118.644 44.0003H117.038L118.909 35.9236ZM120.469 41.2025L119.833 37.8123L119.198 41.2025H120.469Z" fill="#AFB1B8"/>
<path d="M124.117 35.9236H125.306L127.582 40.5309V35.9236H128.992V44.0003H127.861L125.571 39.1906V44.0003H124.114L124.117 35.9236Z" fill="#AFB1B8"/>
<path d="M132.294 40.9208L130.402 35.9349H131.996L133.151 39.1376L134.234 35.9349H135.794L133.925 40.9208V44.0003H132.294V40.9208Z" fill="#AFB1B8"/>
<path d="M92.0477 47.5316V47.954H90.6617V51.2359H90.0807V47.954H88.6879V47.5316H92.0477Z" fill="#AFB1B8"/>
<path d="M96.3927 51.2362H95.9442C95.8987 51.2386 95.8538 51.2261 95.8185 51.201C95.7846 51.1795 95.7587 51.15 95.7438 51.116L95.3429 50.2361H93.4201L93.0192 51.116C93.0078 51.1528 92.9869 51.1868 92.958 51.2157C92.9225 51.2402 92.8778 51.2527 92.8324 51.2509H92.3839L94.0825 47.5468H94.6737L96.3927 51.2362ZM93.5797 49.8607H95.1833L94.5038 48.3533C94.4537 48.2393 94.4117 48.1227 94.3781 48.0043C94.3543 48.0747 94.3339 48.1421 94.3136 48.2008L94.2524 48.3562L93.5797 49.8607Z" fill="#AFB1B8"/>
<path d="M99.3211 50.8724C99.4275 50.8772 99.5341 50.8772 99.6404 50.8724C99.7323 50.8642 99.8232 50.8495 99.9122 50.8284C99.9954 50.8107 100.077 50.7882 100.157 50.7609C100.232 50.7345 100.306 50.7022 100.384 50.67V49.8369H99.705C99.6882 49.8378 99.6714 49.8356 99.6556 49.8305C99.6398 49.8255 99.6254 49.8177 99.6133 49.8076C99.6021 49.7993 99.5933 49.7889 99.5874 49.7772C99.5815 49.7655 99.5787 49.7529 99.5793 49.7401V49.4556H100.897V50.8753C100.79 50.9417 100.676 51.0006 100.558 51.0513C100.437 51.1029 100.31 51.1451 100.181 51.1774C100.042 51.2127 99.8996 51.2382 99.7559 51.2537C99.5912 51.2695 99.4257 51.2773 99.26 51.2771C98.967 51.2793 98.6763 51.2325 98.4038 51.1393C98.1495 51.051 97.9184 50.9193 97.7244 50.7521C97.5353 50.5832 97.3864 50.3839 97.2862 50.1655C97.1791 49.9199 97.1261 49.6593 97.1299 49.397C97.1263 49.133 97.1781 48.8706 97.2828 48.6226C97.3805 48.4031 97.5297 48.2033 97.721 48.036C97.9149 47.8693 98.1461 47.7386 98.4005 47.6517C98.6914 47.5572 99.0001 47.5105 99.3109 47.5138C99.4691 47.5137 99.627 47.5245 99.7831 47.5461C99.9212 47.5655 100.057 47.597 100.187 47.64C100.306 47.6785 100.42 47.7277 100.527 47.7866C100.631 47.8445 100.73 47.9092 100.823 47.9802L100.66 48.209C100.647 48.2299 100.628 48.2475 100.605 48.2598C100.581 48.2722 100.554 48.279 100.527 48.2794C100.49 48.2784 100.453 48.2682 100.422 48.2501C100.371 48.2266 100.316 48.1973 100.255 48.1621C100.183 48.123 100.107 48.0896 100.028 48.0624C99.9265 48.0273 99.8219 47.9998 99.7152 47.9802C99.5729 47.9576 99.4284 47.9468 99.2837 47.948C99.0596 47.9458 98.8371 47.9807 98.6281 48.0506C98.439 48.1161 98.2686 48.2162 98.1287 48.3439C97.9879 48.4771 97.8803 48.6339 97.8127 48.8045C97.661 49.2056 97.661 49.6381 97.8127 50.0393C97.8871 50.2135 98.0028 50.3724 98.1525 50.5057C98.2918 50.6328 98.4609 50.7328 98.6485 50.799C98.8645 50.8631 99.0934 50.888 99.3211 50.8724Z" fill="#AFB1B8"/>
<path d="M104.736 50.8136H106.591V51.2359H104.169V47.5316H104.75L104.736 50.8136Z" fill="#AFB1B8"/>
<path d="M108.521 51.2359H107.94V47.5316H108.521V51.2359Z" fill="#AFB1B8"/>
<path d="M110.681 47.5492C110.716 47.5662 110.746 47.5892 110.77 47.6167L113.253 50.409C113.25 50.3651 113.25 50.321 113.253 50.277C113.253 50.236 113.253 50.1949 113.253 50.1568V47.517H113.759V51.2362H113.467C113.424 51.2392 113.38 51.2321 113.341 51.2156C113.306 51.1972 113.275 51.1733 113.25 51.1452L110.77 48.3558C110.77 48.3998 110.77 48.4409 110.77 48.482C110.77 48.523 110.77 48.5612 110.77 48.5964V51.2362H110.284V47.5316H110.586C110.619 47.5317 110.651 47.5377 110.681 47.5492Z" fill="#AFB1B8"/>
<path d="M118.036 47.5316V47.9393H115.978V49.1624H117.646V49.5554H115.978V50.8195H118.036V51.2272H115.38V47.5316H118.036Z" fill="#AFB1B8"/>
<path d="M57.1617 24.6555L82.9568 30.9788V53.1368L57.1617 46.8164V24.6555ZM55.5073 22.7667V47.8928L84.6079 55.0285V29.9054L55.5073 22.7667Z" fill="#AFB1B8"/>
<path d="M71.1039 66.6922L42 59.5505V34.4271L71.1039 41.5659V66.6922Z" fill="#AFB1B8"/>
<path d="M55.9897 24.371L81.4484 30.615L70.6215 39.9649L45.1594 33.7179L55.9897 24.371ZM55.5073 22.7667L42 34.4277L71.1039 41.5662L84.6078 29.9053L55.5073 22.7667Z" fill="#AFB1B8"/>
<path d="M72.7414 65.2788L84.6078 55.0315L72.7414 52.1193V65.2788Z" fill="#AFB1B8"/>
</g>
<defs>
<filter id="filter0_d" x="0" y="0" width="178" height="100" filterUnits="userSpaceOnUse" color-interpolation-filters="sRGB">
<feFlood flood-opacity="0" result="BackgroundImageFix"/>
<feColorMatrix in="SourceAlpha" type="matrix" values="0 0 0 0 0 0 0 0 0 0 0 0 0 0 0 0 0 0 127 0"/>
<feOffset dy="4"/>
<feGaussianBlur stdDeviation="2"/>
<feColorMatrix type="matrix" values="0 0 0 0 0 0 0 0 0 0 0 0 0 0 0 0 0 0 0.25 0"/>
<feBlend mode="normal" in2="BackgroundImageFix" result="effect1_dropShadow"/>
<feBlend mode="normal" in="SourceGraphic" in2="effect1_dropShadow" result="shape"/>
</filter>
</defs>
</svg>
